<svg xmlns="http://www.w3.org/2000/svg" id="Layer_1" data-name="Layer 1" viewBox="0 0 32 32"><title>callback</title><path style="fill:#ff4f1f" d="M29.65,24.91c-.55-1.1-1.16-2.21-1.71-3.37a2.5,2.5,0,0,0-2.26-1.38l-3.09.06-3.59-7,2-2a2.72,2.72,0,0,0,.06-3L19.66,5.27a1.83,1.83,0,0,0-2.87-.66,10,10,0,0,0-3.2,4.85A5.07,5.07,0,0,0,14,13.27l1.77,3.42L18,21.16l1.77,3.53a5.08,5.08,0,0,0,2.81,2.54,10,10,0,0,0,6,.28,1.89,1.89,0,0,0,1.1-2.59Z"/><path style="fill:#ff4f1f" d="M12,17.63h0l-5.41-.06,1.66-1.65A1.29,1.29,0,0,0,6.47,14.1L2.61,17.9h0a.77.77,0,0,0-.17.22c0,.06-.06.06-.06.11s-.06.06-.06.11-.06.11-.06.17-.06.06-.06.11-.06.17-.06.28h0l.06.06a.21.21,0,0,0,.06.17c0,.06.06.06.06.11s0,.06.06.11a.19.19,0,0,0,.06.11c0,.06.06.06.06.11s.06.11.11.17a.05.05,0,0,0,.06.06h0l3.81,3.86a1.29,1.29,0,0,0,.94.39,1.1,1.1,0,0,0,.88-.39,1.3,1.3,0,0,0,0-1.82L6.64,20.11H12.1a1.25,1.25,0,0,0,1.27-1.27A1.29,1.29,0,0,0,12,17.63Z"/></svg>