<svg id="Layer_1" data-name="Layer 1" xmlns="http://www.w3.org/2000/svg" viewBox="0 0 32 32"><title>chat-alpha</title><path d="M3.48,29.19A1.78,1.78,0,0,1,2.76,29a1.11,1.11,0,0,1-.33-1.21L4.58,21a10.23,10.23,0,0,1-2.32-6.51C2.26,8.05,8.44,2.81,16,2.81S29.74,8.05,29.74,14.45,23.56,26.1,16,26.1a15.15,15.15,0,0,1-5.24-.88L4,29a1.07,1.07,0,0,1-.55.17ZM16,5C9.65,5,4.47,9.27,4.47,14.45A8.25,8.25,0,0,0,6.68,20a1.06,1.06,0,0,1,.22,1l-2,5.24L10.1,23A1.12,1.12,0,0,1,11,23a13.47,13.47,0,0,0,5,.94c6.34,0,11.53-4.25,11.53-9.43S22.35,5,16,5Z"/></svg>