<svg xmlns="http://www.w3.org/2000/svg" width="32" height="32"><title>logo-genesys</title><g><title>background</title><rect id="canvas_background" width="3.612" height="3.612" x="-1" y="-1" fill="none"/></g><g><title>Layer 1</title><rect id="svg_2" width="32" height="32" x="0" y="0" fill="#FF4F1F" stroke="null" rx="4" ry="4"/></g><g><title>Layer 2</title><path id="svg_1" fill="#fff" stroke="null" d="m26.38546,3.59286a1.31889,1.31889 0 1 1 -1.31889,1.31889a1.31889,1.31889 0 0 1 1.31889,-1.31889m0,-1.56345a2.8736,2.8736 0 1 0 2.8736,2.8736a2.8736,2.8736 0 0 0 -2.8736,-2.8736zm-1.95649,8.79549a3.02208,3.02208 0 0 1 0,6.04417l-7.59888,0a3.02208,3.02208 0 0 1 0,-6.04417l7.60762,0m0,-1.80801l-7.60762,0a4.83009,4.83009 0 0 0 0,9.66019l7.60762,0a4.83009,4.83009 0 1 0 -0.00873,-9.66019l0.00873,0zm0,13.10152a3.02208,3.02208 0 0 1 0,6.04417l-3.29285,0a3.02208,3.02208 0 0 1 0,-6.04417l3.28411,0m0,-1.80801l-3.28411,0a4.83009,4.83009 0 0 0 0,9.66019l3.28411,0a4.83009,4.83009 0 1 0 0,-9.66019z"/></g></svg>