<svg width="32" height="32" xmlns="http://www.w3.org/2000/svg">
 <title>logo-genesys</title>

 <g>
  <title>background</title>
  <rect x="-1" y="-1" width="3.61209" height="3.61209" id="canvas_background" fill="none"/>
 </g>
 <g>
  <title>Layer 1</title>
  <rect stroke="null" fill="#FF4F1F" id="svg_2" ry="4" rx="4" height="32" width="32" y="0" x="0"/>
 </g>
 <g>
  <title>Layer 2</title>
  <path fill="#ffffff" d="m26.38546,3.59286a1.31889,1.31889 0 1 1 -1.31889,1.31889a1.31889,1.31889 0 0 1 1.31889,-1.31889m0,-1.56345a2.8736,2.8736 0 1 0 2.8736,2.8736a2.8736,2.8736 0 0 0 -2.8736,-2.8736zm-1.95649,8.79549a3.02208,3.02208 0 0 1 0,6.04417l-7.59888,0a3.02208,3.02208 0 0 1 0,-6.04417l7.60762,0m0,-1.80801l-7.60762,0a4.83009,4.83009 0 0 0 0,9.66019l7.60762,0a4.83009,4.83009 0 1 0 -0.00873,-9.66019l0.00873,0zm0,13.10152a3.02208,3.02208 0 0 1 0,6.04417l-3.29285,0a3.02208,3.02208 0 0 1 0,-6.04417l3.28411,0m0,-1.80801l-3.28411,0a4.83009,4.83009 0 0 0 0,9.66019l3.28411,0a4.83009,4.83009 0 1 0 0,-9.66019z" id="svg_1" stroke="null"/>
 </g>
</svg>