<svg id="Layer_1" data-name="Layer 1" xmlns="http://www.w3.org/2000/svg" viewBox="0 0 32 32"><title>pop-out</title><path d="M31.8.2a.76.76,0,0,0-.5-.2H19.9a.76.76,0,0,0-.5.2.76.76,0,0,0-.2.5V3.2a.76.76,0,0,0,.2.5.76.76,0,0,0,.5.2h5.4L16,13.2a.76.76,0,0,0-.2.5c0,.2.1.3.2.5L17.8,16a.72.72,0,0,0,1,0L28,6.7v5.4a.68.68,0,0,0,.7.7h2.5a.68.68,0,0,0,.7-.7V.7C32,.5,31.9.4,31.8.2Z"/><path d="M3.9,28.1V3.9H14.1a.76.76,0,0,0,.5-.2.76.76,0,0,0,.2-.5V.7a.76.76,0,0,0-.2-.5.76.76,0,0,0-.5-.2H.7C.5,0,.4.1.2.2S0,.5,0,.7V31.3a.76.76,0,0,0,.2.5.76.76,0,0,0,.5.2H31.3a.68.68,0,0,0,.7-.7V17.9a.68.68,0,0,0-.7-.7H28.8a.68.68,0,0,0-.7.7V28.1Z"/></svg>